<?xml version="1.0" encoding="UTF-8" standalone="no"?>
<!DOCTYPE svg PUBLIC "-//W3C//DTD SVG 1.1//EN" "http://www.w3.org/Graphics/SVG/1.1/DTD/svg11.dtd">
<svg width="100%" height="100%" viewBox="0 0 1280 720" version="1.1" xmlns="http://www.w3.org/2000/svg" xmlns:xlink="http://www.w3.org/1999/xlink" xml:space="preserve" xmlns:serif="http://www.serif.com/" style="fill-rule:evenodd;clip-rule:evenodd;stroke-linejoin:round;stroke-miterlimit:2;">
    <g transform="matrix(1.47832,0,0,1,118.01,11.4686)">
        <rect x="-99.757" y="-130.507" width="905.708" height="958.076" style="fill:url(#_Linear1);"/>
    </g>
    <g transform="matrix(1,0,0,1,0,26.2797)">
        <g transform="matrix(1,0,0,1,155.55,-498.037)">
            <g>
                <g transform="matrix(0.618637,0,0,0.618637,155.638,580.607)">
                    <g>
                        <g transform="matrix(0.585452,0,0,0.585452,-117.838,146.138)">
                            <g transform="matrix(1,0,0,1,0,-4.81848)">
                                <path d="M732.337,693.045L825.76,369.869L799.202,335.775L1030.82,315.473L1087.8,664.746L933.779,712.278L910.5,508.425L850.67,711.326L732.337,693.045Z" style="fill:white;"/>
                            </g>
                            <path d="M1490.68,273.69L1601.66,263.972L1664.96,707.828L1521.15,600.296L1355.6,690.193L1490.68,273.69Z" style="fill:white;"/>
                            <path d="M1069.77,309.694L1127.48,687.335L1221.74,672.748L1265.7,293.769L1069.77,309.694Z" style="fill:white;"/>
                            <g transform="matrix(1,0,0,1,197.288,-21.4677)">
                                <path d="M1089.58,309.973L1051.32,696.943L1125.28,711.661L1265.12,295.158L1089.58,309.973Z" style="fill:white;"/>
                            </g>
                            <g transform="matrix(1,0,0,1,-219.388,-5.35713)">
                                <path d="M660.644,420.674L790.4,420.674L821.412,521.044L880.946,215.991L1003.74,377.366L842.826,896.185L753.605,883.096L813.557,612.477L732.337,635.409L660.644,420.674Z" style="fill:white;"/>
                            </g>
                        </g>
                        <g transform="matrix(1.61646,0,0,1.61646,-173.595,-658.105)">
                            <path d="M608.665,549.114L614.129,584.015L324.181,603.932L289.96,565.078L608.665,549.114Z" style="fill:white;"/>
                        </g>
                    </g>
                </g>
                <g transform="matrix(1.74521,-0.771407,0.771407,1.74521,-2367.8,1653.04)">
                    <path d="M1651.62,196.796L1674.01,223.819L1643.09,284.87L1629.54,281.348L1651.62,196.796Z" style="fill:rgb(22,33,49);"/>
                </g>
                <g transform="matrix(1.47145,-0.650404,0.650404,1.47145,-1893.78,1525.59)">
                    <circle cx="1633.65" cy="304.522" r="11.327" style="fill:rgb(22,33,49);"/>
                </g>
            </g>
        </g>
        <g transform="matrix(0.546059,0,0,0.546059,184.691,-140.181)">
            <g transform="matrix(48,0,0,48,451.04,608.714)">
                <path d="M0.392,-0.267L0.392,-0L0.224,-0L0.224,-0.266L-0.008,-0.711L0.176,-0.711L0.311,-0.405L0.447,-0.711L0.624,-0.711L0.392,-0.267Z" style="fill:white;fill-rule:nonzero;"/>
            </g>
            <g transform="matrix(48,0,0,48,480.578,608.714)">
                <path d="M0.212,-0.225C0.218,-0.181 0.232,-0.149 0.256,-0.129C0.279,-0.11 0.309,-0.101 0.343,-0.101C0.368,-0.101 0.392,-0.105 0.415,-0.113C0.439,-0.121 0.461,-0.132 0.483,-0.146L0.548,-0.057C0.522,-0.036 0.491,-0.018 0.455,-0.004C0.418,0.01 0.377,0.017 0.33,0.017C0.268,0.017 0.216,0.005 0.174,-0.02C0.132,-0.045 0.1,-0.079 0.079,-0.122C0.058,-0.165 0.047,-0.215 0.047,-0.272C0.047,-0.325 0.057,-0.374 0.078,-0.418C0.098,-0.462 0.128,-0.497 0.168,-0.523C0.207,-0.549 0.256,-0.563 0.313,-0.563C0.365,-0.563 0.41,-0.551 0.448,-0.529C0.486,-0.507 0.516,-0.475 0.537,-0.433C0.558,-0.392 0.568,-0.342 0.568,-0.283C0.568,-0.274 0.568,-0.264 0.567,-0.253C0.567,-0.243 0.566,-0.233 0.565,-0.225L0.212,-0.225ZM0.313,-0.454C0.284,-0.454 0.26,-0.443 0.243,-0.423C0.225,-0.402 0.214,-0.368 0.21,-0.323L0.41,-0.323C0.41,-0.362 0.402,-0.394 0.387,-0.418C0.372,-0.442 0.347,-0.454 0.313,-0.454Z" style="fill:white;fill-rule:nonzero;"/>
            </g>
            <g transform="matrix(48,0,0,48,510.117,608.714)">
                <path d="M0.562,-0.032C0.541,-0.018 0.515,-0.006 0.485,0.003C0.455,0.013 0.421,0.017 0.384,0.017C0.312,0.017 0.26,-0.001 0.225,-0.037C0.191,-0.074 0.173,-0.123 0.173,-0.186L0.173,-0.433L0.059,-0.433L0.059,-0.545L0.173,-0.545L0.173,-0.663L0.335,-0.682L0.335,-0.545L0.511,-0.545L0.495,-0.433L0.335,-0.433L0.335,-0.186C0.335,-0.159 0.342,-0.139 0.354,-0.128C0.366,-0.116 0.386,-0.11 0.413,-0.11C0.432,-0.11 0.449,-0.113 0.465,-0.117C0.481,-0.122 0.496,-0.128 0.508,-0.135L0.562,-0.032Z" style="fill:white;fill-rule:nonzero;"/>
            </g>
            <g transform="matrix(48,0,0,48,569.193,608.714)">
                <path d="M0.41,-0.153L0.202,-0.153L0.165,-0L-0.011,-0L0.206,-0.711L0.41,-0.711L0.628,-0L0.448,-0L0.41,-0.153ZM0.229,-0.275L0.383,-0.275L0.306,-0.59L0.229,-0.275Z" style="fill:white;fill-rule:nonzero;"/>
            </g>
            <g transform="matrix(48,0,0,48,598.732,608.714)">
                <path d="M0.072,-0L0.072,-0.545L0.213,-0.545L0.225,-0.482C0.249,-0.509 0.275,-0.529 0.302,-0.543C0.329,-0.556 0.359,-0.563 0.394,-0.563C0.44,-0.563 0.477,-0.548 0.504,-0.52C0.53,-0.492 0.544,-0.452 0.544,-0.4L0.544,-0L0.382,-0L0.382,-0.353C0.382,-0.387 0.378,-0.41 0.371,-0.423C0.363,-0.436 0.349,-0.443 0.329,-0.443C0.312,-0.443 0.296,-0.438 0.28,-0.427C0.265,-0.416 0.249,-0.401 0.234,-0.381L0.234,-0L0.072,-0Z" style="fill:white;fill-rule:nonzero;"/>
            </g>
            <g transform="matrix(48,0,0,48,628.27,608.714)">
                <path d="M0.308,-0.563C0.364,-0.563 0.411,-0.551 0.451,-0.527C0.49,-0.503 0.52,-0.469 0.541,-0.426C0.562,-0.383 0.572,-0.332 0.572,-0.274C0.572,-0.183 0.549,-0.112 0.503,-0.06C0.456,-0.008 0.391,0.017 0.308,0.017C0.224,0.017 0.159,-0.008 0.113,-0.059C0.066,-0.11 0.043,-0.181 0.043,-0.273C0.043,-0.331 0.054,-0.381 0.075,-0.425C0.096,-0.468 0.126,-0.502 0.165,-0.526C0.205,-0.55 0.252,-0.563 0.308,-0.563ZM0.308,-0.443C0.275,-0.443 0.25,-0.429 0.234,-0.402C0.218,-0.375 0.21,-0.332 0.21,-0.273C0.21,-0.213 0.218,-0.169 0.234,-0.142C0.25,-0.115 0.275,-0.102 0.308,-0.102C0.341,-0.102 0.365,-0.115 0.381,-0.142C0.397,-0.169 0.405,-0.213 0.405,-0.274C0.405,-0.333 0.397,-0.376 0.381,-0.403C0.365,-0.43 0.341,-0.443 0.308,-0.443Z" style="fill:white;fill-rule:nonzero;"/>
            </g>
            <g transform="matrix(48,0,0,48,657.809,608.714)">
                <path d="M0.562,-0.032C0.541,-0.018 0.515,-0.006 0.485,0.003C0.455,0.013 0.421,0.017 0.384,0.017C0.312,0.017 0.26,-0.001 0.225,-0.037C0.191,-0.074 0.173,-0.123 0.173,-0.186L0.173,-0.433L0.059,-0.433L0.059,-0.545L0.173,-0.545L0.173,-0.663L0.335,-0.682L0.335,-0.545L0.511,-0.545L0.495,-0.433L0.335,-0.433L0.335,-0.186C0.335,-0.159 0.342,-0.139 0.354,-0.128C0.366,-0.116 0.386,-0.11 0.413,-0.11C0.432,-0.11 0.449,-0.113 0.465,-0.117C0.481,-0.122 0.496,-0.128 0.508,-0.135L0.562,-0.032Z" style="fill:white;fill-rule:nonzero;"/>
            </g>
            <g transform="matrix(48,0,0,48,687.347,608.714)">
                <path d="M0.234,-0.777L0.234,-0.491C0.279,-0.539 0.333,-0.563 0.394,-0.563C0.442,-0.563 0.479,-0.548 0.505,-0.52C0.531,-0.492 0.544,-0.452 0.544,-0.4L0.544,-0L0.382,-0L0.382,-0.355C0.382,-0.388 0.378,-0.411 0.371,-0.424C0.363,-0.437 0.349,-0.443 0.329,-0.443C0.312,-0.443 0.296,-0.437 0.28,-0.425C0.265,-0.414 0.249,-0.397 0.234,-0.377L0.234,-0L0.072,-0L0.072,-0.761L0.234,-0.777Z" style="fill:white;fill-rule:nonzero;"/>
            </g>
            <g transform="matrix(48,0,0,48,716.886,608.714)">
                <path d="M0.212,-0.225C0.218,-0.181 0.232,-0.149 0.256,-0.129C0.279,-0.11 0.309,-0.101 0.343,-0.101C0.368,-0.101 0.392,-0.105 0.415,-0.113C0.439,-0.121 0.461,-0.132 0.483,-0.146L0.548,-0.057C0.522,-0.036 0.491,-0.018 0.455,-0.004C0.418,0.01 0.377,0.017 0.33,0.017C0.268,0.017 0.216,0.005 0.174,-0.02C0.132,-0.045 0.1,-0.079 0.079,-0.122C0.058,-0.165 0.047,-0.215 0.047,-0.272C0.047,-0.325 0.057,-0.374 0.078,-0.418C0.098,-0.462 0.128,-0.497 0.168,-0.523C0.207,-0.549 0.256,-0.563 0.313,-0.563C0.365,-0.563 0.41,-0.551 0.448,-0.529C0.486,-0.507 0.516,-0.475 0.537,-0.433C0.558,-0.392 0.568,-0.342 0.568,-0.283C0.568,-0.274 0.568,-0.264 0.567,-0.253C0.567,-0.243 0.566,-0.233 0.565,-0.225L0.212,-0.225ZM0.313,-0.454C0.284,-0.454 0.26,-0.443 0.243,-0.423C0.225,-0.402 0.214,-0.368 0.21,-0.323L0.41,-0.323C0.41,-0.362 0.402,-0.394 0.387,-0.418C0.372,-0.442 0.347,-0.454 0.313,-0.454Z" style="fill:white;fill-rule:nonzero;"/>
            </g>
            <g transform="matrix(48,0,0,48,746.424,608.714)">
                <path d="M0.077,-0L0.077,-0.109L0.149,-0.109L0.149,-0.437L0.077,-0.437L0.077,-0.545L0.272,-0.545L0.302,-0.422C0.322,-0.469 0.346,-0.504 0.377,-0.527C0.407,-0.55 0.444,-0.561 0.488,-0.561C0.506,-0.561 0.523,-0.56 0.537,-0.557C0.551,-0.554 0.565,-0.55 0.577,-0.545L0.547,-0.317L0.446,-0.317L0.446,-0.417C0.415,-0.412 0.388,-0.395 0.365,-0.367C0.341,-0.34 0.323,-0.305 0.311,-0.265L0.311,-0.109L0.418,-0.109L0.418,-0L0.077,-0Z" style="fill:white;fill-rule:nonzero;"/>
            </g>
            <g transform="matrix(48,0,0,48,805.501,608.714)">
                <path d="M0.391,-0.582L0.391,-0L0.223,-0L0.223,-0.582L0.023,-0.582L0.023,-0.711L0.598,-0.711L0.581,-0.582L0.391,-0.582Z" style="fill:white;fill-rule:nonzero;"/>
            </g>
            <g transform="matrix(48,0,0,48,835.04,608.714)">
                <path d="M0.53,-0.157C0.53,-0.136 0.533,-0.122 0.539,-0.112C0.544,-0.103 0.554,-0.096 0.566,-0.091L0.533,0.015C0.501,0.012 0.474,0.005 0.452,-0.006C0.429,-0.017 0.412,-0.034 0.399,-0.056C0.379,-0.031 0.352,-0.013 0.319,-0.001C0.287,0.011 0.254,0.017 0.22,0.017C0.164,0.017 0.119,0.001 0.086,-0.031C0.053,-0.062 0.036,-0.104 0.036,-0.154C0.036,-0.213 0.059,-0.259 0.105,-0.291C0.152,-0.323 0.217,-0.339 0.301,-0.339L0.374,-0.339L0.374,-0.359C0.374,-0.415 0.338,-0.443 0.267,-0.443C0.249,-0.443 0.227,-0.441 0.199,-0.436C0.172,-0.431 0.145,-0.424 0.117,-0.414L0.08,-0.522C0.115,-0.535 0.152,-0.545 0.19,-0.552C0.228,-0.559 0.262,-0.563 0.292,-0.563C0.373,-0.563 0.433,-0.546 0.472,-0.513C0.511,-0.48 0.53,-0.432 0.53,-0.37L0.53,-0.157ZM0.276,-0.098C0.293,-0.098 0.312,-0.104 0.331,-0.114C0.35,-0.125 0.364,-0.139 0.374,-0.158L0.374,-0.247L0.334,-0.247C0.289,-0.247 0.256,-0.24 0.235,-0.226C0.214,-0.212 0.203,-0.192 0.203,-0.165C0.203,-0.144 0.209,-0.128 0.222,-0.116C0.235,-0.104 0.253,-0.098 0.276,-0.098Z" style="fill:white;fill-rule:nonzero;"/>
            </g>
            <g transform="matrix(48,0,0,48,864.578,608.714)">
                <path d="M0.356,-0.761L0.356,-0.171C0.356,-0.149 0.362,-0.134 0.375,-0.124C0.387,-0.115 0.404,-0.11 0.426,-0.11C0.44,-0.11 0.454,-0.112 0.467,-0.115C0.48,-0.118 0.492,-0.122 0.503,-0.127L0.542,-0.018C0.524,-0.009 0.501,-0.001 0.475,0.007C0.449,0.014 0.419,0.017 0.385,0.017C0.319,0.017 0.271,-0.001 0.24,-0.039C0.209,-0.077 0.194,-0.128 0.194,-0.191L0.194,-0.65L0.033,-0.65L0.033,-0.761L0.356,-0.761Z" style="fill:white;fill-rule:nonzero;"/>
            </g>
            <g transform="matrix(48,0,0,48,894.117,608.714)">
                <path d="M0.234,-0.778L0.234,-0L0.072,-0L0.072,-0.761L0.234,-0.778ZM0.589,-0.545L0.41,-0.304L0.604,-0L0.419,-0L0.24,-0.298L0.419,-0.545L0.589,-0.545Z" style="fill:white;fill-rule:nonzero;"/>
            </g>
            <g transform="matrix(48,0,0,48,953.193,608.714)">
                <path d="M0.562,-0.032C0.541,-0.018 0.515,-0.006 0.485,0.003C0.455,0.013 0.421,0.017 0.384,0.017C0.312,0.017 0.26,-0.001 0.225,-0.037C0.191,-0.074 0.173,-0.123 0.173,-0.186L0.173,-0.433L0.059,-0.433L0.059,-0.545L0.173,-0.545L0.173,-0.663L0.335,-0.682L0.335,-0.545L0.511,-0.545L0.495,-0.433L0.335,-0.433L0.335,-0.186C0.335,-0.159 0.342,-0.139 0.354,-0.128C0.366,-0.116 0.386,-0.11 0.413,-0.11C0.432,-0.11 0.449,-0.113 0.465,-0.117C0.481,-0.122 0.496,-0.128 0.508,-0.135L0.562,-0.032Z" style="fill:white;fill-rule:nonzero;"/>
            </g>
            <g transform="matrix(48,0,0,48,982.732,608.714)">
                <path d="M0.308,-0.563C0.364,-0.563 0.411,-0.551 0.451,-0.527C0.49,-0.503 0.52,-0.469 0.541,-0.426C0.562,-0.383 0.572,-0.332 0.572,-0.274C0.572,-0.183 0.549,-0.112 0.503,-0.06C0.456,-0.008 0.391,0.017 0.308,0.017C0.224,0.017 0.159,-0.008 0.113,-0.059C0.066,-0.11 0.043,-0.181 0.043,-0.273C0.043,-0.331 0.054,-0.381 0.075,-0.425C0.096,-0.468 0.126,-0.502 0.165,-0.526C0.205,-0.55 0.252,-0.563 0.308,-0.563ZM0.308,-0.443C0.275,-0.443 0.25,-0.429 0.234,-0.402C0.218,-0.375 0.21,-0.332 0.21,-0.273C0.21,-0.213 0.218,-0.169 0.234,-0.142C0.25,-0.115 0.275,-0.102 0.308,-0.102C0.341,-0.102 0.365,-0.115 0.381,-0.142C0.397,-0.169 0.405,-0.213 0.405,-0.274C0.405,-0.333 0.397,-0.376 0.381,-0.403C0.365,-0.43 0.341,-0.443 0.308,-0.443Z" style="fill:white;fill-rule:nonzero;"/>
            </g>
            <g transform="matrix(48,0,0,48,1041.81,608.714)">
                <path d="M0.41,-0.153L0.202,-0.153L0.165,-0L-0.011,-0L0.206,-0.711L0.41,-0.711L0.628,-0L0.448,-0L0.41,-0.153ZM0.229,-0.275L0.383,-0.275L0.306,-0.59L0.229,-0.275Z" style="fill:white;fill-rule:nonzero;"/>
            </g>
            <g transform="matrix(48,0,0,48,1071.35,608.714)">
                <path d="M0.538,-0.711L0.538,-0.588L0.392,-0.588L0.392,-0.124L0.538,-0.124L0.538,-0L0.077,-0L0.077,-0.124L0.224,-0.124L0.224,-0.588L0.077,-0.588L0.077,-0.711L0.538,-0.711Z" style="fill:white;fill-rule:nonzero;"/>
            </g>
            <g transform="matrix(48,0,0,48,1130.42,608.714)">
                <path d="M0.41,-0.153L0.202,-0.153L0.165,-0L-0.011,-0L0.206,-0.711L0.41,-0.711L0.628,-0L0.448,-0L0.41,-0.153ZM0.229,-0.275L0.383,-0.275L0.306,-0.59L0.229,-0.275Z" style="fill:white;fill-rule:nonzero;"/>
            </g>
            <g transform="matrix(48,0,0,48,1159.96,608.714)">
                <path d="M0.373,-0.563C0.421,-0.563 0.459,-0.551 0.488,-0.527C0.517,-0.504 0.539,-0.47 0.552,-0.427C0.566,-0.384 0.572,-0.333 0.572,-0.274C0.572,-0.218 0.564,-0.168 0.548,-0.124C0.531,-0.08 0.508,-0.045 0.476,-0.02C0.445,0.005 0.408,0.017 0.363,0.017C0.31,0.017 0.267,-0.002 0.234,-0.039L0.234,0.21L0.072,0.227L0.072,-0.545L0.215,-0.545L0.223,-0.484C0.245,-0.512 0.269,-0.532 0.295,-0.544C0.322,-0.556 0.348,-0.563 0.373,-0.563ZM0.323,-0.443C0.304,-0.443 0.288,-0.437 0.273,-0.426C0.259,-0.415 0.246,-0.399 0.234,-0.38L0.234,-0.15C0.245,-0.134 0.257,-0.121 0.269,-0.113C0.282,-0.105 0.297,-0.102 0.314,-0.102C0.343,-0.102 0.365,-0.115 0.381,-0.141C0.397,-0.167 0.405,-0.211 0.405,-0.272C0.405,-0.317 0.402,-0.352 0.395,-0.377C0.389,-0.401 0.379,-0.419 0.367,-0.428C0.355,-0.438 0.34,-0.443 0.323,-0.443Z" style="fill:white;fill-rule:nonzero;"/>
            </g>
            <g transform="matrix(48,0,0,48,1189.5,608.714)">
                <path d="M0.373,-0.563C0.421,-0.563 0.459,-0.551 0.488,-0.527C0.517,-0.504 0.539,-0.47 0.552,-0.427C0.566,-0.384 0.572,-0.333 0.572,-0.274C0.572,-0.218 0.564,-0.168 0.548,-0.124C0.531,-0.08 0.508,-0.045 0.476,-0.02C0.445,0.005 0.408,0.017 0.363,0.017C0.31,0.017 0.267,-0.002 0.234,-0.039L0.234,0.21L0.072,0.227L0.072,-0.545L0.215,-0.545L0.223,-0.484C0.245,-0.512 0.269,-0.532 0.295,-0.544C0.322,-0.556 0.348,-0.563 0.373,-0.563ZM0.323,-0.443C0.304,-0.443 0.288,-0.437 0.273,-0.426C0.259,-0.415 0.246,-0.399 0.234,-0.38L0.234,-0.15C0.245,-0.134 0.257,-0.121 0.269,-0.113C0.282,-0.105 0.297,-0.102 0.314,-0.102C0.343,-0.102 0.365,-0.115 0.381,-0.141C0.397,-0.167 0.405,-0.211 0.405,-0.272C0.405,-0.317 0.402,-0.352 0.395,-0.377C0.389,-0.401 0.379,-0.419 0.367,-0.428C0.355,-0.438 0.34,-0.443 0.323,-0.443Z" style="fill:white;fill-rule:nonzero;"/>
            </g>
        </g>
    </g>
    <defs>
        <linearGradient id="_Linear1" x1="0" y1="0" x2="1" y2="0" gradientUnits="userSpaceOnUse" gradientTransform="matrix(905.708,0,0,958.076,-99.7574,348.531)"><stop offset="0" style="stop-color:rgb(255,98,91);stop-opacity:1"/><stop offset="1" style="stop-color:rgb(255,0,72);stop-opacity:1"/></linearGradient>
    </defs>
</svg>
